<svg version="1.1" viewBox="0 0 32 32" xmlns="http://www.w3.org/2000/svg"><path d="m6.61595 25.6574-1.11595-1.13299 8.1196-8.12901-8.0179-8.0272 2.36818-2.36818 8.0272 8.0179 8.0272-8.0179 2.36818 2.36818-8.0179 8.0272 8.12545 8.13486-2.36806 2.36806-8.13487-8.12545-4.0134 4.00875c-2.20737 2.20482-4.06703 4.00875-4.13259 4.00875-0.065556 0-0.621369-0.509841-1.23514-1.13299z" fill="#f7f7f7"/><path d="m3.572 1c-0.907538 2.548e-4 -2.54542 1.66446-2.572 2.572v27.428h1.5v-25.951c0.0108763-1.1874 1.19032-2.56453 2.365-2.54906h22.27c1.27506 0.037162 2.35991 1.30414 2.36496 2.54906v25.951h1.5v-27.428c0.026061-0.933844-1.66443-2.57174-2.57196-2.572z" fill="#f7f7f7"/></svg>
